<svg xmlns="http://www.w3.org/2000/svg" width="119.03448634198662" height="117.27586574304951" style="">
    <defs>
        <linearGradient id="svg_4" x1="0.25" y1="0.6773437559604645" x2="0.9453125" y2="0.04843750596046448"
                        spreadMethod="pad">
            <stop stop-color="#d34ab5" stop-opacity="1" offset="0"/>
            <stop stop-color="#27a6bc" stop-opacity="1" offset="1"/>
        </linearGradient>
        <linearGradient id="svg_5" x1="0.25" y1="0.6773437559604645" x2="0.9453125" y2="0.04843750596046448"
                        spreadMethod="pad">
            <stop stop-color="#2ed" stop-opacity="1" offset="0"/>
            <stop stop-color="#f80" stop-opacity="1" offset="1"/>
        </linearGradient>
    </defs>
    <title>my vector image</title>
    <!-- Created with Vector Paint - http://www.vectorpaint.yaks.com/ https://chrome.google.com/webstore/detail/hnbpdiengicdefcjecjbnjnoifekhgdo -->
    <g class="currentLayer" style="" transform="rotate(180 59.5 58.5)" x="0" y="0">
        <title>Layer 1</title>
        <path
                fill="url(#svg_5)" stroke="#222222" stroke-width="2" stroke-linejoin="round" stroke-dashoffset=""
                fill-rule="nonzero" marker-start="" marker-mid="" marker-end="" id="svg_1"
                d="M59.59895044799646,6.362239421097598 C73.96955633687475,6.362239421097598 85.62781457452138,18.031722869403126 85.62781457452138,32.40232875828127 C85.62781457452138,46.772941662916054 73.96955633687475,58.431196392686275 59.59895044799646,58.431196392686275 C45.22833754336085,58.431196392686275 33.57007930571427,70.1006903646254 33.57007930571427,84.47129274562525 C33.57007930571427,98.84190214238413 45.22833754336085,110.5001603800307 59.59895044799646,110.5001603800307 C88.34016222575241,110.5001603800307 111.66790040382807,87.17240466256408 111.66790040382807,58.4311928848054 C111.66790040382807,29.689977599174284 88.34016222575241,6.362235913218228 59.59895044799646,6.362235913218228 L59.59895044799646,6.362239421097598 zM59.59895044799646,24.264801717382227 C55.10582485438965,24.264801717382227 51.46141639133816,27.909196148913793 51.46141639133816,32.40232875828127 C51.46141639133816,36.895468383402545 55.105814330752594,40.539855799181595 59.59895044799646,40.539855799181595 C64.09208305736496,40.539855799181595 67.73647398101906,36.895461367648096 67.73647398101906,32.40232875828127 C67.73647398101906,27.909196148913793 64.09208305736496,24.264801717382227 59.59895044799646,24.264801717382227 zM59.59895044799646,76.33376921260214 C64.08975733403088,76.33376921260214 67.73647398101906,79.98047884383695 67.73647398101906,84.47129625350516 C67.73647398101906,88.9621031395375 64.08976084190806,92.60883031016118 59.59895044799646,92.60883031016118 C55.1081365462108,92.60883031016118 51.46141639133816,88.96210664741326 51.46141639133816,84.47129625350516 C51.46141639133816,79.98048936747236 55.1081365462108,76.33376921260214 59.59895044799646,76.33376921260214 zM110.50002948699569,58.464373905935815 C110.50002948699569,87.18423322829275 87.21799194781283,110.46628129111309 58.498115086062285,110.46628129111309 C29.77825225582785,110.46628129111309 6.49620068512678,87.18423322829275 6.49620068512678,58.464373905935815 C6.49620068512678,29.74450405994247 29.77825225582785,6.462448981366208 58.498115086062285,6.462448981366208 C87.21799194781283,6.462448981366208 110.50002948699569,29.74450405994247 110.50002948699569,58.464373905935815 z"
                style="color: rgb(0, 0, 0);" class=""/>
    </g>
    <g class="currentLayer" style="">
        <title>Layer 1</title>
        <path
                fill="url(#svg_4)" stroke="#222222" stroke-width="2" stroke-linejoin="round" stroke-dashoffset=""
                fill-rule="nonzero" marker-start="" marker-mid="" marker-end="" id="svg_1"
                d="M59.59895044799646,6.362239421097598 C73.96955633687475,6.362239421097598 85.62781457452138,18.031722869403126 85.62781457452138,32.40232875828127 C85.62781457452138,46.772941662916054 73.96955633687475,58.431196392686275 59.59895044799646,58.431196392686275 C45.22833754336085,58.431196392686275 33.57007930571427,70.1006903646254 33.57007930571427,84.47129274562525 C33.57007930571427,98.84190214238413 45.22833754336085,110.5001603800307 59.59895044799646,110.5001603800307 C88.34016222575241,110.5001603800307 111.66790040382807,87.17240466256408 111.66790040382807,58.4311928848054 C111.66790040382807,29.689977599174284 88.34016222575241,6.362235913218228 59.59895044799646,6.362235913218228 L59.59895044799646,6.362239421097598 zM59.59895044799646,24.264801717382227 C55.10582485438965,24.264801717382227 51.46141639133816,27.909196148913793 51.46141639133816,32.40232875828127 C51.46141639133816,36.895468383402545 55.105814330752594,40.539855799181595 59.59895044799646,40.539855799181595 C64.09208305736496,40.539855799181595 67.73647398101906,36.895461367648096 67.73647398101906,32.40232875828127 C67.73647398101906,27.909196148913793 64.09208305736496,24.264801717382227 59.59895044799646,24.264801717382227 zM59.59895044799646,76.33376921260214 C64.08975733403088,76.33376921260214 67.73647398101906,79.98047884383695 67.73647398101906,84.47129625350516 C67.73647398101906,88.9621031395375 64.08976084190806,92.60883031016118 59.59895044799646,92.60883031016118 C55.1081365462108,92.60883031016118 51.46141639133816,88.96210664741326 51.46141639133816,84.47129625350516 C51.46141639133816,79.98048936747236 55.1081365462108,76.33376921260214 59.59895044799646,76.33376921260214 zM110.50002948699569,58.464373905935815 C110.50002948699569,87.18423322829275 87.21799194781283,110.46628129111309 58.498115086062285,110.46628129111309 C29.77825225582785,110.46628129111309 6.49620068512678,87.18423322829275 6.49620068512678,58.464373905935815 C6.49620068512678,29.74450405994247 29.77825225582785,6.462448981366208 58.498115086062285,6.462448981366208 C87.21799194781283,6.462448981366208 110.50002948699569,29.74450405994247 110.50002948699569,58.464373905935815 z"
                style="color: rgb(0, 0, 0);" class=""/>
    </g>
</svg>